<mxfile host="app.diagrams.net" modified="2020-12-07T16:08:31.126Z" agent="5.0 (Macintosh; Intel Mac OS X 10_15_6) AppleWebKit/605.1.15 (KHTML, like Gecko) Version/13.1.2 Safari/605.1.15" etag="cII9PUy7RSqHs6jR-iMa" version="13.10.9" type="github">
  <diagram id="Mg5pY9ZRm-pp7figrhFJ" name="Page-1">
    <mxGraphModel dx="541" dy="341" grid="1" gridSize="10" guides="1" tooltips="1" connect="1" arrows="1" fold="1" page="1" pageScale="1" pageWidth="827" pageHeight="1169" math="0" shadow="0">
      <root>
        <mxCell id="0" />
        <mxCell id="1" parent="0" />
        <mxCell id="OuaE0NoGm6p-mQuoXKvS-6" style="edgeStyle=orthogonalEdgeStyle;rounded=0;orthogonalLoop=1;jettySize=auto;html=1;exitX=1;exitY=0.5;exitDx=0;exitDy=0;entryX=0;entryY=0.5;entryDx=0;entryDy=0;" parent="1" source="OuaE0NoGm6p-mQuoXKvS-1" target="OuaE0NoGm6p-mQuoXKvS-2" edge="1">
          <mxGeometry relative="1" as="geometry" />
        </mxCell>
        <mxCell id="OuaE0NoGm6p-mQuoXKvS-1" value="开&lt;br&gt;始" style="ellipse;whiteSpace=wrap;html=1;" parent="1" vertex="1">
          <mxGeometry x="120" y="410" width="40" height="80" as="geometry" />
        </mxCell>
        <mxCell id="OuaE0NoGm6p-mQuoXKvS-7" style="edgeStyle=orthogonalEdgeStyle;rounded=0;orthogonalLoop=1;jettySize=auto;html=1;exitX=1;exitY=0.5;exitDx=0;exitDy=0;entryX=0;entryY=0.5;entryDx=0;entryDy=0;" parent="1" source="OuaE0NoGm6p-mQuoXKvS-2" target="OuaE0NoGm6p-mQuoXKvS-3" edge="1">
          <mxGeometry relative="1" as="geometry" />
        </mxCell>
        <mxCell id="OuaE0NoGm6p-mQuoXKvS-2" value="参&lt;br&gt;数&lt;br&gt;校&lt;br&gt;验" style="rounded=0;whiteSpace=wrap;html=1;" parent="1" vertex="1">
          <mxGeometry x="210" y="400" width="40" height="100" as="geometry" />
        </mxCell>
        <mxCell id="OuaE0NoGm6p-mQuoXKvS-8" style="edgeStyle=orthogonalEdgeStyle;rounded=0;orthogonalLoop=1;jettySize=auto;html=1;exitX=0.5;exitY=0;exitDx=0;exitDy=0;entryX=0.5;entryY=1;entryDx=0;entryDy=0;" parent="1" source="OuaE0NoGm6p-mQuoXKvS-3" target="OuaE0NoGm6p-mQuoXKvS-4" edge="1">
          <mxGeometry relative="1" as="geometry" />
        </mxCell>
        <mxCell id="OuaE0NoGm6p-mQuoXKvS-10" style="edgeStyle=orthogonalEdgeStyle;rounded=0;orthogonalLoop=1;jettySize=auto;html=1;exitX=1;exitY=0.5;exitDx=0;exitDy=0;entryX=0;entryY=0.5;entryDx=0;entryDy=0;" parent="1" source="OuaE0NoGm6p-mQuoXKvS-3" target="OuaE0NoGm6p-mQuoXKvS-9" edge="1">
          <mxGeometry relative="1" as="geometry" />
        </mxCell>
        <mxCell id="OuaE0NoGm6p-mQuoXKvS-3" value="事&lt;br&gt;务&lt;br&gt;入&lt;br&gt;库" style="rounded=0;whiteSpace=wrap;html=1;" parent="1" vertex="1">
          <mxGeometry x="300" y="400" width="40" height="100" as="geometry" />
        </mxCell>
        <mxCell id="OuaE0NoGm6p-mQuoXKvS-4" value="&lt;div style=&quot;text-align: left&quot;&gt;&lt;span style=&quot;font-family: &amp;#34;calibri&amp;#34; , sans-serif ; font-size: 10.5pt&quot;&gt;acct_mercury_batch_repayment_apply&lt;/span&gt;&lt;/div&gt;&lt;span lang=&quot;EN-US&quot; style=&quot;font-size: 10.5pt ; font-family: &amp;#34;calibri&amp;#34; , sans-serif&quot;&gt;&lt;div style=&quot;text-align: left&quot;&gt;&lt;span style=&quot;font-size: 10.5pt&quot;&gt;acct_mercury_batch_repayment_relation&lt;/span&gt;&lt;/div&gt;&lt;span lang=&quot;EN-US&quot; style=&quot;font-size: 10.5pt ; font-family: &amp;#34;calibri&amp;#34; , sans-serif&quot;&gt;&lt;div style=&quot;text-align: left&quot;&gt;&lt;span style=&quot;font-size: 10.5pt&quot;&gt;acct_mercury_repayment_apply&lt;/span&gt;&lt;/div&gt;&lt;/span&gt;&lt;/span&gt;" style="rounded=0;whiteSpace=wrap;html=1;" parent="1" vertex="1">
          <mxGeometry x="188.75" y="300" width="262.5" height="50" as="geometry" />
        </mxCell>
        <mxCell id="OuaE0NoGm6p-mQuoXKvS-13" style="edgeStyle=orthogonalEdgeStyle;rounded=0;orthogonalLoop=1;jettySize=auto;html=1;exitX=1;exitY=0.5;exitDx=0;exitDy=0;entryX=0;entryY=0.5;entryDx=0;entryDy=0;dashed=1;" parent="1" source="OuaE0NoGm6p-mQuoXKvS-9" target="OuaE0NoGm6p-mQuoXKvS-11" edge="1">
          <mxGeometry relative="1" as="geometry" />
        </mxCell>
        <mxCell id="OuaE0NoGm6p-mQuoXKvS-9" value="返&lt;br&gt;回&lt;br&gt;还&lt;br&gt;款&lt;br&gt;已&lt;br&gt;受&lt;br&gt;理" style="rounded=0;whiteSpace=wrap;html=1;" parent="1" vertex="1">
          <mxGeometry x="393.5" y="400" width="40" height="100" as="geometry" />
        </mxCell>
        <mxCell id="OuaE0NoGm6p-mQuoXKvS-14" style="edgeStyle=orthogonalEdgeStyle;rounded=0;orthogonalLoop=1;jettySize=auto;html=1;exitX=1;exitY=0.5;exitDx=0;exitDy=0;entryX=0;entryY=0.5;entryDx=0;entryDy=0;" parent="1" source="OuaE0NoGm6p-mQuoXKvS-11" target="OuaE0NoGm6p-mQuoXKvS-12" edge="1">
          <mxGeometry relative="1" as="geometry" />
        </mxCell>
        <mxCell id="OuaE0NoGm6p-mQuoXKvS-11" value="循&lt;br&gt;环&lt;br&gt;调&lt;br&gt;用&lt;br&gt;还&lt;br&gt;款" style="rounded=0;whiteSpace=wrap;html=1;" parent="1" vertex="1">
          <mxGeometry x="490" y="400" width="40" height="100" as="geometry" />
        </mxCell>
        <mxCell id="OuaE0NoGm6p-mQuoXKvS-12" value="结&lt;br&gt;束" style="ellipse;whiteSpace=wrap;html=1;" parent="1" vertex="1">
          <mxGeometry x="580" y="410" width="40" height="80" as="geometry" />
        </mxCell>
        <mxCell id="OuaE0NoGm6p-mQuoXKvS-15" value="异步" style="text;html=1;align=center;verticalAlign=middle;resizable=0;points=[];autosize=1;" parent="1" vertex="1">
          <mxGeometry x="442.5" y="430" width="40" height="20" as="geometry" />
        </mxCell>
      </root>
    </mxGraphModel>
  </diagram>
</mxfile>
